<?xml version="1.0" standalone="no"?>
<!DOCTYPE svg PUBLIC "-//W3C//DTD SVG 20010904//EN"
 "http://www.w3.org/TR/2001/REC-SVG-20010904/DTD/svg10.dtd">
<svg version="1.0" xmlns="http://www.w3.org/2000/svg"
 width="720.000000pt" height="720.000000pt" viewBox="0 0 720.000000 720.000000"
 preserveAspectRatio="xMidYMid meet">
<metadata>
Created by potrace 1.11, written by Peter Selinger 2001-2013
</metadata>
<g transform="translate(0.000000,720.000000) scale(0.100000,-0.100000)"
fill="#000000" stroke="none">
<path d="M95 6430 c-22 -11 -49 -33 -60 -48 -19 -26 -20 -45 -23 -532 -3 -576
-5 -556 78 -597 l45 -23 620 0 c431 0 632 -4 658 -12 20 -6 53 -25 73 -41 74
-61 68 50 70 -1448 l1 -1347 21 -33 c22 -36 50 -57 86 -66 28 -7 1165 -8 1236
0 310 31 477 144 520 352 9 44 12 259 13 825 0 798 3 858 47 1052 159 695 731
1270 1660 1668 80 34 150 63 155 64 6 2 26 9 45 18 35 14 180 70 272 103 60
22 73 37 58 64 l-11 21 -2762 0 c-2752 0 -2762 0 -2802 -20z"/>
<path d="M6229 5626 c-2 -2 -27 -6 -56 -10 -59 -7 -172 -30 -223 -46 -19 -6
-42 -13 -50 -15 -68 -16 -311 -122 -385 -168 -251 -156 -414 -324 -479 -498
-34 -90 -32 -201 4 -272 76 -150 266 -232 535 -231 157 0 274 18 440 66 384
110 751 376 867 628 68 148 54 299 -37 393 -64 67 -185 123 -315 146 -51 9
-293 14 -301 7z"/>
<path d="M7130 4282 c-8 -3 -66 -44 -130 -92 -126 -95 -247 -180 -256 -180 -3
0 -24 -13 -47 -29 -102 -70 -423 -221 -552 -260 -22 -7 -49 -16 -60 -21 -41
-18 -311 -92 -395 -109 -53 -11 -80 -17 -117 -25 -17 -4 -189 -33 -243 -41
-51 -8 -160 -21 -240 -30 -101 -11 -131 -34 -146 -111 -4 -21 -7 -252 -7 -514
0 -527 -3 -509 66 -564 l39 -31 991 0 c546 -1 1010 3 1032 8 43 9 79 37 100
77 10 20 13 221 13 955 0 512 -2 937 -4 947 -6 19 -23 27 -44 20z"/>
<path d="M68 1512 l-58 -3 0 -92 0 -92 138 0 137 0 3 -287 2 -287 130 1 130 0
0 284 c0 156 3 285 8 285 4 1 61 2 127 3 66 1 126 5 133 9 8 6 12 36 12 93 l0
84 -77 0 c-43 1 -202 2 -353 3 -151 1 -301 1 -332 -1z"/>
<path d="M1025 1512 l-60 -3 0 -377 0 -377 130 0 130 0 2 95 c1 52 2 107 2
122 l1 27 208 3 c203 3 209 4 245 28 53 36 61 66 63 220 1 172 -12 210 -83
242 -45 20 -66 21 -313 22 -146 1 -292 0 -325 -2z m472 -183 c17 -15 18 -130
1 -147 -8 -8 -54 -12 -139 -12 l-127 0 -4 58 c-5 88 0 110 25 114 50 7 231 -3
244 -13z"/>
<path d="M1953 1498 c-12 -6 -26 -22 -30 -37 -6 -19 -9 -623 -4 -698 1 -8 40
-11 131 -12 l130 0 0 379 0 380 -102 -1 c-57 0 -113 -5 -125 -11z"/>
<path d="M2582 1218 c-56 -15 -71 -44 -73 -143 -2 -85 0 -90 25 -112 30 -25
29 -25 196 -27 l115 -1 0 -35 0 -35 -167 -3 -168 -2 0 -55 0 -55 218 3 c279 3
288 8 285 151 -3 125 -14 133 -198 135 -71 1 -134 6 -138 10 -5 5 -7 21 -5 37
l3 29 145 2 c80 1 155 2 168 2 20 1 22 6 22 54 l0 53 -200 -1 c-110 0 -213 -3
-228 -7z"/>
<path d="M3239 1214 c-49 -11 -91 -40 -112 -79 -14 -26 -17 -241 -4 -280 15
-44 62 -82 117 -95 77 -19 296 -9 344 16 68 33 81 60 84 182 1 59 0 122 -3
140 -9 47 -59 100 -108 113 -56 15 -257 17 -318 3z m238 -103 c6 0 15 -11 19
-23 12 -36 11 -188 -2 -206 -21 -29 -177 -33 -205 -5 -6 6 -11 54 -12 108 -1
90 1 99 22 116 20 16 83 20 178 10z"/>
<path d="M3770 1205 c-1 -43 -1 -275 -1 -362 l1 -93 80 1 79 1 3 91 3 92 127
0 c69 0 130 3 134 7 4 4 8 28 9 53 l1 45 -138 0 -138 0 0 39 0 39 138 -1 c76
0 143 3 150 6 6 4 10 29 9 55 l-2 47 -227 0 c-222 0 -228 0 -228 -20z"/>
<path d="M4310 1173 c0 -43 3 -53 18 -54 9 0 47 -1 85 -1 l67 -1 0 -182 0
-183 80 0 c54 0 80 3 81 11 0 7 1 89 1 183 l1 171 80 0 c48 1 82 5 86 12 6 9
7 67 2 91 -1 3 -113 5 -251 5 l-250 0 0 -52z"/>
<path d="M4890 1207 c0 -11 4 -36 10 -56 25 -97 52 -207 57 -230 2 -13 6 -28
8 -31 2 -4 7 -22 10 -41 3 -19 10 -48 16 -65 10 -31 11 -31 69 -30 56 2 90 17
90 39 0 6 10 47 22 91 l22 81 26 -105 26 -105 63 1 c39 1 67 6 75 15 11 11 35
99 72 262 10 44 13 56 28 113 9 34 16 66 16 71 0 13 -119 8 -132 -5 -12 -12
-48 -146 -48 -178 0 -53 -18 -28 -35 47 -32 152 -29 146 -78 144 -23 -2 -47
-3 -53 -4 -15 -1 -28 -36 -53 -134 -11 -43 -21 -80 -23 -82 -2 -2 -15 45 -28
106 -14 60 -27 110 -30 110 -3 1 -33 2 -67 3 -56 2 -63 0 -63 -17z"/>
<path d="M6149 1205 c0 -27 0 -393 0 -427 1 -26 1 -26 81 -26 l80 0 0 183 0
183 66 -1 c70 -1 88 -13 79 -56 -7 -35 -14 -41 -55 -41 l-40 0 46 -127 c24
-70 50 -131 57 -135 7 -4 42 -8 80 -8 51 0 67 3 67 14 0 8 -14 53 -31 101
l-30 86 25 20 c67 52 52 227 -20 245 -13 3 -109 7 -214 7 -184 2 -190 1 -191
-18z"/>
<path d="M6723 1217 c-5 -8 -8 -401 -4 -454 1 -9 53 -12 214 -12 116 0 219 2
228 5 13 4 17 17 16 54 l0 50 -149 0 -149 0 3 38 3 37 110 1 c61 1 116 2 123
3 8 1 12 18 12 51 l0 50 -125 0 -125 0 0 39 0 38 131 -1 c167 -1 171 0 167 61
l-3 48 -223 0 c-129 1 -226 -3 -229 -8z"/>
<path d="M5682 1207 c-6 -7 -40 -105 -76 -217 -35 -113 -67 -213 -71 -222 -7
-17 3 -18 123 -18 73 0 133 4 137 10 3 5 12 29 19 53 l13 43 -41 -1 c-23 -1
-44 0 -47 2 -6 3 46 197 58 217 5 7 42 -104 90 -266 l16 -58 83 0 83 0 -13 43
c-18 59 -84 268 -111 352 l-22 70 -115 3 c-86 2 -118 -1 -126 -11z"/>
</g>
</svg>
